<svg width="505" height="103" viewBox="0 0 505 103" fill="none" xmlns="http://www.w3.org/2000/svg">
<path d="M103.054 5.99002C100.224 2.22002 95.7739 0 91.0539 0H28.514C23.794 0 19.354 2.22002 16.514 5.99002L3.00394 23.99C-1.15606 29.53 -0.976059 37.19 3.42394 42.54L19.0039 61.44L48.2739 96.78C54.2739 104.03 65.3939 104.02 71.3939 96.77L100.584 61.44L116.164 42.54C120.564 37.2 120.744 29.53 116.584 23.99L103.074 5.99002H103.054ZM94.8339 52.65L75.074 78.2C73.904 79.71 71.4939 78.88 71.4939 76.98V41.25H87.6139L87.6639 53.34L100.804 35.47C101.854 34.04 101.844 32.09 100.764 30.68L91.8339 18.93C91.0739 17.93 89.9039 17.35 88.6539 17.35H30.9139C29.6639 17.35 28.484 17.93 27.734 18.93L18.8039 30.68C17.7339 32.09 17.714 34.04 18.764 35.47L31.9039 53.34L31.9539 41.25H48.074V76.98C48.074 78.89 45.6539 79.71 44.4939 78.2L24.734 52.65L13.1139 37.8C10.9239 35 10.8439 31.09 12.9139 28.2L23.4139 13.58C24.9139 11.49 27.3339 10.25 29.9139 10.25H89.6439C92.2239 10.25 94.6339 11.49 96.1439 13.58L106.644 28.2C108.724 31.09 108.644 35 106.444 37.8L94.824 52.65H94.8339Z" fill="url(#paint0_linear_112_104)"/>
<path d="M138.564 30.26H160.064V84.78H175.614V30.26H197.114V17.59H138.564V30.26Z" fill="white"/>
<path d="M239.115 35.59C235.055 33.45 230.495 32.37 225.435 32.37C220.375 32.37 215.485 33.51 211.325 35.78C207.165 38.05 203.885 41.19 201.485 45.19C199.085 49.19 197.885 53.78 197.885 58.96C197.885 64.14 199.095 68.64 201.535 72.64C203.965 76.64 207.405 79.79 211.855 82.09C216.305 84.39 221.465 85.55 227.355 85.55C232.025 85.55 236.155 84.83 239.735 83.39C243.315 81.95 246.295 79.89 248.665 77.2L240.695 68.56C238.965 70.23 237.065 71.47 234.985 72.3C232.905 73.13 230.485 73.55 227.735 73.55C224.665 73.55 221.995 72.99 219.725 71.87C217.455 70.75 215.695 69.12 214.445 66.97C213.765 65.81 213.285 64.54 212.975 63.18H252.025C252.085 62.54 252.155 61.85 252.215 61.12C252.275 60.39 252.315 59.73 252.315 59.15C252.315 53.58 251.135 48.8 248.765 44.8C246.395 40.8 243.185 37.73 239.115 35.58V35.59ZM218.765 45.38C220.715 44.26 222.975 43.7 225.535 43.7C228.095 43.7 230.335 44.26 232.255 45.38C234.175 46.5 235.675 48.05 236.765 50.04C237.485 51.35 237.945 52.84 238.185 54.46H212.805C213.055 52.86 213.505 51.39 214.205 50.09C215.295 48.07 216.815 46.51 218.765 45.39V45.38Z" fill="white"/>
<path d="M279.855 13.56H264.885V84.78H279.855V13.56Z" fill="white"/>
<path d="M310.575 11.49C308.845 9.99002 306.605 9.24002 303.855 9.24002C301.105 9.24002 298.865 10.04 297.135 11.64C295.405 13.24 294.545 15.22 294.545 17.59C294.545 19.96 295.405 21.94 297.135 23.54C298.865 25.14 301.105 25.94 303.855 25.94C306.605 25.94 308.925 25.12 310.625 23.49C312.325 21.86 313.165 19.8 313.165 17.3C313.165 14.93 312.305 13 310.575 11.49Z" fill="#27B78D"/>
<path d="M311.335 33.14H296.365V84.78H311.335V33.14Z" fill="white"/>
<path d="M376.904 33.14H360.964L349.754 48.22L338.794 33.14H321.994L341.194 58.73L321.324 84.78H337.644L349.374 68.96L360.684 84.78H377.674L357.694 58.39L376.904 33.14Z" fill="white"/>
<path d="M425.084 35.78C420.794 33.51 415.934 32.37 410.494 32.37C405.054 32.37 400.114 33.51 395.854 35.78C391.594 38.05 388.234 41.19 385.774 45.19C383.314 49.19 382.084 53.78 382.084 58.96C382.084 64.14 383.314 68.64 385.774 72.64C388.234 76.64 391.594 79.79 395.854 82.09C400.114 84.39 404.984 85.55 410.494 85.55C416.004 85.55 420.794 84.4 425.084 82.09C429.374 79.79 432.734 76.64 435.164 72.64C437.594 68.64 438.814 64.08 438.814 58.96C438.814 53.84 437.594 49.11 435.164 45.14C432.734 41.17 429.374 38.05 425.084 35.78ZM421.924 66.59C420.774 68.73 419.204 70.38 417.224 71.53C415.244 72.68 413.004 73.26 410.504 73.26C408.004 73.26 405.764 72.68 403.784 71.53C401.804 70.38 400.214 68.73 399.034 66.59C397.854 64.45 397.254 61.9 397.254 58.96C397.254 56.02 397.844 53.39 399.034 51.28C400.214 49.17 401.804 47.54 403.784 46.38C405.764 45.23 408.004 44.65 410.504 44.65C413.004 44.65 415.244 45.23 417.224 46.38C419.204 47.53 420.774 49.16 421.924 51.28C423.074 53.39 423.654 55.95 423.654 58.96C423.654 61.97 423.074 64.45 421.924 66.59Z" fill="white"/>
<path d="M501.405 42.3C499.545 38.94 497.005 36.45 493.775 34.81C490.545 33.18 486.875 32.36 482.785 32.36C478.375 32.36 474.435 33.29 470.975 35.14C468.935 36.24 467.175 37.62 465.695 39.27V33.12H451.395V84.76H466.365V59.23C466.365 56.03 466.895 53.41 467.945 51.36C469.005 49.31 470.475 47.79 472.365 46.8C474.255 45.81 476.375 45.31 478.745 45.31C482.075 45.31 484.645 46.3 486.475 48.28C488.295 50.26 489.215 53.34 489.215 57.5V84.76H504.185V55.19C504.185 49.94 503.255 45.64 501.405 42.28V42.3Z" fill="white"/>
<defs>
<linearGradient id="paint0_linear_112_104" x1="59.7939" y1="-4.01" x2="59.7939" y2="103.25" gradientUnits="userSpaceOnUse">
<stop offset="0.02" stop-color="#27B78D"/>
<stop offset="0.44" stop-color="#25A581"/>
<stop offset="1" stop-color="#22896D"/>
</linearGradient>
</defs>
</svg>
